<?xml version="1.0" encoding="UTF-8"?><svg xmlns="http://www.w3.org/2000/svg" xmlns:xlink="http://www.w3.org/1999/xlink" width="48" zoomAndPan="magnify" viewBox="0 0 48 48" height="48" preserveAspectRatio="xMidYMid meet" version="1.0"><defs><clipPath id="clip-0"><path d="M 0.488281 0 L 47.507812 0 L 47.507812 47.019531 L 0.488281 47.019531 Z M 0.488281 0 " clip-rule="nonzero"/></clipPath></defs><g clip-path="url(#clip-0)"><path fill="rgb(9.799194%, 10.198975%, 16.079712%)" d="M 47.511719 23.511719 C 47.511719 36.496094 36.984375 47.019531 24 47.019531 C 11.015625 47.019531 0.488281 36.496094 0.488281 23.511719 C 0.488281 10.527344 11.015625 0 24 0 C 36.984375 0 47.511719 10.527344 47.511719 23.511719 " fill-opacity="1" fill-rule="nonzero"/></g><path stroke-linecap="round" transform="matrix(0.0139444, 0, 0, -0.0139444, -5.645726, 53.15593)" fill="none" stroke-linejoin="round" d="M 1171.033354 3209.998473 L 1171.033354 3101.867897 " stroke="rgb(100%, 100%, 100%)" stroke-width="50" stroke-opacity="1" stroke-miterlimit="10"/><path stroke-linecap="round" transform="matrix(0.0139444, 0, 0, -0.0139444, -5.645726, 53.15593)" fill="none" stroke-linejoin="round" d="M 1171.033354 3018.388851 L 1171.033354 2909.978143 " stroke="rgb(100%, 100%, 100%)" stroke-width="50" stroke-opacity="1" stroke-miterlimit="10"/><path stroke-linecap="round" transform="matrix(0.0139444, 0, 0, -0.0139444, -5.645726, 53.15593)" fill="none" stroke-linejoin="round" d="M 1320.903453 3060.128374 L 1212.772877 3060.128374 " stroke="rgb(100%, 100%, 100%)" stroke-width="50" stroke-opacity="1" stroke-miterlimit="10"/><path stroke-linecap="round" transform="matrix(0.0139444, 0, 0, -0.0139444, -5.645726, 53.15593)" fill="none" stroke-linejoin="round" d="M 1129.0137 3060.128374 L 1020.883123 3060.128374 " stroke="rgb(100%, 100%, 100%)" stroke-width="50" stroke-opacity="1" stroke-miterlimit="10"/><path stroke-linecap="round" transform="matrix(0.0139444, 0, 0, -0.0139444, -5.645726, 53.15593)" fill="none" stroke-linejoin="round" d="M 1218.935759 3060.128374 C 1218.935759 3033.515926 1197.36567 3011.945837 1171.033354 3011.945837 C 1144.420906 3011.945837 1122.850817 3033.515926 1122.850817 3060.128374 C 1122.850817 3086.46069 1144.420906 3108.030779 1171.033354 3108.030779 C 1197.36567 3108.030779 1218.935759 3086.46069 1218.935759 3060.128374 Z M 1218.935759 3060.128374 " stroke="rgb(100%, 100%, 100%)" stroke-width="50" stroke-opacity="1" stroke-miterlimit="10"/><path stroke-linecap="round" transform="matrix(0.0139444, 0, 0, -0.0139444, -5.645726, 53.15593)" fill="none" stroke-linejoin="round" d="M 3080.966695 1342.084786 L 3080.966695 1233.674079 " stroke="rgb(100%, 100%, 100%)" stroke-width="50" stroke-opacity="1" stroke-miterlimit="10"/><path stroke-linecap="round" transform="matrix(0.0139444, 0, 0, -0.0139444, -5.645726, 53.15593)" fill="none" stroke-linejoin="round" d="M 3080.966695 1150.195033 L 3080.966695 1042.064456 " stroke="rgb(100%, 100%, 100%)" stroke-width="50" stroke-opacity="1" stroke-miterlimit="10"/><path stroke-linecap="round" transform="matrix(0.0139444, 0, 0, -0.0139444, -5.645726, 53.15593)" fill="none" stroke-linejoin="round" d="M 3231.116925 1191.934556 L 3122.986349 1191.934556 " stroke="rgb(100%, 100%, 100%)" stroke-width="50" stroke-opacity="1" stroke-miterlimit="10"/><path stroke-linecap="round" transform="matrix(0.0139444, 0, 0, -0.0139444, -5.645726, 53.15593)" fill="none" stroke-linejoin="round" d="M 3039.227172 1191.934556 L 2931.096595 1191.934556 " stroke="rgb(100%, 100%, 100%)" stroke-width="50" stroke-opacity="1" stroke-miterlimit="10"/><path stroke-linecap="round" transform="matrix(0.0139444, 0, 0, -0.0139444, -5.645726, 53.15593)" fill="none" stroke-linejoin="round" d="M 3129.149231 1191.934556 C 3129.149231 1165.602239 3107.579142 1144.03215 3080.966695 1144.03215 C 3054.634378 1144.03215 3033.064289 1165.602239 3033.064289 1191.934556 C 3033.064289 1218.547003 3054.634378 1239.836961 3080.966695 1239.836961 C 3107.579142 1239.836961 3129.149231 1218.547003 3129.149231 1191.934556 Z M 3129.149231 1191.934556 " stroke="rgb(100%, 100%, 100%)" stroke-width="50" stroke-opacity="1" stroke-miterlimit="10"/><path stroke-linecap="round" transform="matrix(0.0139444, 0, 0, -0.0139444, -5.645726, 53.15593)" fill="none" stroke-linejoin="round" d="M 2801.115799 2125.891399 C 2801.115799 1749.115168 2495.77298 1443.492218 2118.716617 1443.492218 C 1741.660255 1443.492218 1436.037305 1749.115168 1436.037305 2125.891399 C 1436.037305 2502.947761 1741.660255 2808.570712 2118.716617 2808.570712 C 2495.77298 2808.570712 2801.115799 2502.947761 2801.115799 2125.891399 Z M 2801.115799 2125.891399 " stroke="rgb(100%, 100%, 100%)" stroke-width="70" stroke-opacity="1" stroke-miterlimit="10"/><path fill="rgb(100%, 100%, 100%)" d="M 44.378906 15.097656 C 43.734375 13.484375 37.988281 14.171875 30.371094 16.535156 C 30.59375 16.738281 30.804688 16.957031 31.007812 17.183594 C 36.636719 15.371094 40.652344 14.617188 40.988281 15.457031 C 41.472656 16.675781 34.027344 20.785156 24.359375 24.640625 C 14.691406 28.496094 6.457031 30.632812 5.972656 29.414062 C 5.636719 28.574219 9.0625 26.363281 14.386719 23.808594 C 14.382812 23.710938 14.378906 23.609375 14.378906 23.511719 C 14.378906 23.316406 14.386719 23.125 14.398438 22.9375 C 7.460938 26.398438 2.988281 29.757812 3.621094 31.34375 C 4.476562 33.480469 14.289062 31.578125 25.542969 27.09375 C 36.796875 22.605469 45.230469 17.234375 44.378906 15.097656 " fill-opacity="1" fill-rule="nonzero"/><path fill="rgb(100%, 100%, 100%)" d="M 39.089844 15.9375 C 38.574219 15.386719 35.472656 15.992188 31.164062 17.367188 C 31.25 17.464844 31.332031 17.5625 31.410156 17.664062 C 34.257812 16.722656 36.175781 16.265625 36.429688 16.539062 C 36.910156 17.046875 31.324219 19.929688 23.964844 22.972656 C 16.601562 26.019531 10.246094 28.070312 9.765625 27.5625 C 9.484375 27.257812 11.34375 26.117188 14.445312 24.601562 C 14.429688 24.46875 14.414062 24.335938 14.40625 24.203125 C 10.085938 26.378906 7.496094 28.171875 8.050781 28.765625 C 8.890625 29.664062 16.089844 27.375 24.660156 23.832031 C 33.230469 20.292969 39.925781 16.832031 39.089844 15.9375 " fill-opacity="1" fill-rule="nonzero"/></svg>